<svg width="32" height="32" viewBox="0 0 32 32" fill="none" xmlns="http://www.w3.org/2000/svg">
<path d="M20.6079 7.84518L12.3584 16.0947L20.6079 24.3443C20.6893 24.4257 20.7605 24.5134 20.8215 24.6058C21.2486 25.2527 21.1774 26.1318 20.6079 26.7014C19.9571 27.3522 18.9018 27.3522 18.2509 26.7014L8.82286 17.2733C8.7838 17.2342 8.74686 17.1934 8.71216 17.151C8.46916 16.8545 8.33472 16.4815 8.33472 16.0947C8.33472 15.6527 8.5103 15.2289 8.82286 14.9162L18.2509 5.48815C18.9018 4.83728 19.9571 4.83728 20.6079 5.48815C20.6893 5.56951 20.7605 5.65719 20.8215 5.7496C21.2486 6.39652 21.1774 7.27566 20.6079 7.84518Z" fill="#1A1A1A"/>
</svg>
