<svg width="60" height="60" viewBox="0 0 60 60" fill="none" xmlns="http://www.w3.org/2000/svg">
<path d="M3.63281 13.0078V46.9922H56.3672V13.0078H3.63281ZM10.6641 41.7188C10.6641 42.0424 10.4017 42.3047 10.0781 42.3047C9.75457 42.3047 9.49219 42.0424 9.49219 41.7188V18.2812C9.49219 17.9577 9.75457 17.6953 10.0781 17.6953C10.4017 17.6953 10.6641 17.9577 10.6641 18.2812V41.7188ZM51.6797 42.8906C51.6797 43.2143 51.4174 43.4766 51.0938 43.4766H41.7188C41.3951 43.4766 41.1328 43.2143 41.1328 42.8906V17.1094C41.1328 16.7858 41.3951 16.5234 41.7188 16.5234H51.0938C51.4174 16.5234 51.6797 16.7858 51.6797 17.1094V42.8906Z" fill="#1A1A1A"/>
<path d="M42.3047 17.6953H50.5078V42.3047H42.3047V17.6953Z" fill="#1A1A1A"/>
</svg>
