<svg width="44" height="44" viewBox="0 0 44 44" fill="none" xmlns="http://www.w3.org/2000/svg">
<path d="M34.8906 10.4844H31.0234V29.8203C31.0234 33.3741 28.1319 36.2656 24.5781 36.2656H15.5547V40.1328C15.5547 42.2653 17.2894 44 19.4219 44H34.8906C37.0231 44 38.7578 42.2653 38.7578 40.1328V14.3516C38.7578 12.2191 37.0231 10.4844 34.8906 10.4844Z" fill="#2E94F2"/>
<path fill-rule="evenodd" clip-rule="evenodd" d="M9.1348 33.6875H24.6035C26.736 33.6875 28.4707 31.9528 28.4707 29.8203V3.86719C28.4707 1.73473 26.736 0 24.6035 0H9.1348C7.00234 0 5.26761 1.73473 5.26761 3.86719V29.8203C5.26761 31.9528 7.00234 33.6875 9.1348 33.6875ZM19.1088 16.7209L22.4851 20.0978C23.0776 20.6895 23.0778 21.6497 22.4851 22.2424C21.8931 22.8346 20.9332 22.8346 20.3409 22.2424L16.9641 18.8656L13.4336 22.3959C12.8416 22.9878 11.8817 22.9878 11.2894 22.3959C10.697 21.8034 10.697 20.8437 11.2894 20.2509L14.8197 16.7209L11.5327 13.4339C10.9407 12.8414 10.9407 11.8817 11.5327 11.2892C12.1247 10.697 13.0849 10.697 13.6773 11.2892L16.9641 14.5763L20.0977 11.4432C20.6894 10.8512 21.6496 10.851 22.2418 11.4432C22.8346 12.0357 22.8346 12.9959 22.2418 13.5879L19.1088 16.7209Z" fill="#2E94F2"/>
</svg>
