<svg width="20" height="20" viewBox="0 0 20 20" fill="none" xmlns="http://www.w3.org/2000/svg">
<path fill-rule="evenodd" clip-rule="evenodd" d="M7.2222 0.833252C6.76195 0.833252 6.38886 1.20635 6.38886 1.66659V3.33325H2.46029C2.00005 3.33325 1.62695 3.70635 1.62695 4.16659C1.62695 4.62682 2.00005 4.99992 2.46029 4.99992H17.5396C17.9999 4.99992 18.373 4.62682 18.373 4.16659C18.373 3.70635 17.9999 3.33325 17.5396 3.33325H13.6905V1.66659C13.6905 1.20635 13.3174 0.833252 12.8571 0.833252H7.2222ZM8.05553 3.2142V2.49992H12.0238V3.2142H8.05553Z" fill="#DA4665"/>
<path fill-rule="evenodd" clip-rule="evenodd" d="M16.627 6.6665H3.2937V15.9721C3.2937 17.7609 4.66864 19.1665 6.46037 19.1665H13.4604C15.2521 19.1665 16.627 17.7609 16.627 15.9721V6.6665ZM8.84929 9.60267C8.84929 9.1425 8.47613 8.76934 8.01593 8.76934C7.55568 8.76934 7.18259 9.1425 7.18259 9.60267V15.1583C7.18259 15.6185 7.55568 15.9916 8.01593 15.9916C8.47613 15.9916 8.84929 15.6185 8.84929 15.1583V9.60267ZM12.8175 9.60267C12.8175 9.1425 12.4445 8.76934 11.9842 8.76934C11.524 8.76934 11.1509 9.1425 11.1509 9.60267V15.1583C11.1509 15.6185 11.524 15.9916 11.9842 15.9916C12.4445 15.9916 12.8175 15.6185 12.8175 15.1583V9.60267Z" fill="#DA4665"/>
</svg>
