<svg width="20" height="22" viewBox="0 0 20 22" fill="none" xmlns="http://www.w3.org/2000/svg">
<path d="M19.2524 4.07067C17.6057 3.90702 15.9591 3.78429 14.3022 3.69224V3.68201L14.0771 2.35239C13.9237 1.41144 13.6987 0 11.3054 0H8.62572C6.24262 0 6.0176 1.35007 5.85396 2.34217L5.63918 3.65133C4.68799 3.71269 3.7368 3.77406 2.78562 3.86611L0.699148 4.07067C0.26958 4.11158 -0.0372542 4.49001 0.00365697 4.90935C0.0445682 5.32869 0.412769 5.63552 0.842337 5.59461L2.92881 5.39005C8.28821 4.85821 13.6885 5.06276 19.1092 5.60484H19.191C19.5797 5.60484 19.9172 5.30823 19.9581 4.90935C19.9888 4.49001 19.682 4.11158 19.2524 4.07067Z" fill="#F0F0F0"/>
<path d="M17.3705 7.04696C17.125 6.79126 16.7875 6.64807 16.4398 6.64807H3.51188C3.16413 6.64807 2.81638 6.79126 2.58115 7.04696C2.34591 7.30265 2.21294 7.6504 2.2334 8.00837L2.86752 18.5021C2.98003 20.0567 3.12322 22 6.69272 22H13.2589C16.8284 22 16.9717 20.0669 17.0841 18.5021L17.7182 8.0186C17.7387 7.6504 17.6057 7.30265 17.3705 7.04696ZM11.6736 16.8759H8.26775C7.84846 16.8759 7.50072 16.5281 7.50072 16.1088C7.50072 15.6894 7.84846 15.3417 8.26775 15.3417H11.6736C12.0929 15.3417 12.4407 15.6894 12.4407 16.1088C12.4407 16.5281 12.0929 16.8759 11.6736 16.8759ZM12.5327 12.7848H7.4189C6.99956 12.7848 6.65181 12.437 6.65181 12.0177C6.65181 11.5983 6.99956 11.2506 7.4189 11.2506H12.5327C12.9521 11.2506 13.2998 11.5983 13.2998 12.0177C13.2998 12.437 12.9521 12.7848 12.5327 12.7848Z" fill="#F0F0F0"/>
</svg>
