<svg width="26" height="26" viewBox="0 0 26 26" fill="none" xmlns="http://www.w3.org/2000/svg">
<circle cx="13" cy="13" r="13" fill="#2E94F2"/>
<g clip-path="url(#clip0_357_133)">
<path d="M12.5271 15.3065L10.6946 13.474L13.4721 10.6965L15.3046 12.529L12.5271 15.3065Z" fill="#1A1A1A"/>
<path d="M6.37912 14.656C5.87395 15.1612 5.87395 15.9833 6.37915 16.4887L7.02865 17.1381L6.69229 17.4745C6.44754 17.7193 6.3127 18.0447 6.3127 18.3909C6.3127 18.737 6.44756 19.0625 6.69232 19.3072C6.93704 19.552 7.26252 19.6868 7.60872 19.6868C7.95221 19.6868 8.27525 19.5541 8.51935 19.3129C8.52131 19.311 8.52326 19.3091 8.52517 19.3072L8.86144 18.971L9.51099 19.6205C9.75572 19.8652 10.0812 20 10.4274 20C10.7736 20 11.0991 19.8652 11.344 19.6204C11.4626 19.5017 11.5529 19.3653 11.6158 19.2199L6.77941 14.3835C6.63197 14.4475 6.49618 14.5388 6.37912 14.656Z" fill="#1A1A1A"/>
<path d="M19.6201 9.51148L18.9705 8.86193L19.3021 8.53034C19.3038 8.52875 19.3053 8.52719 19.307 8.52558C19.8122 8.02035 19.8122 7.19818 19.307 6.69275C19.0622 6.448 18.7368 6.3132 18.3906 6.3132C18.0445 6.3132 17.719 6.44797 17.4742 6.6927C17.4721 6.6948 17.47 6.69691 17.4679 6.69907L17.1378 7.02916L16.4882 6.37956C16.2435 6.13483 15.918 6 15.5719 6C15.2257 6 14.9003 6.13483 14.6555 6.37961C14.5368 6.49839 14.4465 6.63487 14.3835 6.78039L19.2197 11.6166C19.3672 11.5526 19.5029 11.4612 19.6201 11.3442C19.8649 11.0994 19.9997 10.7739 19.9997 10.4278C19.9997 10.0816 19.8649 9.75618 19.6201 9.51148Z" fill="#1A1A1A"/>
<path d="M11.9469 15.8853L10.1141 14.0526L8.83821 12.7767C8.59346 12.532 8.26801 12.3972 7.9219 12.3972C7.57575 12.3972 7.25025 12.532 7.00533 12.7768C6.88663 12.8955 6.79604 13.0317 6.73315 13.1772L12.8227 19.2667C12.9701 19.2027 13.1058 19.1111 13.2229 18.994C13.4676 18.7492 13.6024 18.4238 13.6024 18.0776C13.6024 17.7314 13.4676 17.406 13.2228 17.1613L11.9469 15.8853Z" fill="#1A1A1A"/>
<path d="M12.7763 7.00598C12.2712 7.51126 12.2712 8.33343 12.7764 8.83872L14.0523 10.1146L15.8851 11.9474L15.8851 11.9474L17.1609 13.2232L17.161 13.2232L17.161 13.2233C17.4059 13.468 17.7313 13.6028 18.0774 13.6028H18.0774C18.4235 13.6028 18.749 13.4679 18.9937 13.2232C19.1108 13.1062 19.2024 12.9706 19.2665 12.8233L13.1764 6.73328C13.029 6.79732 12.8934 6.88892 12.7763 7.00598Z" fill="#1A1A1A"/>
</g>
<defs>
<clipPath id="clip0_357_133">
<rect width="14" height="14" fill="white" transform="translate(6 6)"/>
</clipPath>
</defs>
</svg>
