<svg width="44" height="44" viewBox="0 0 44 44" fill="none" xmlns="http://www.w3.org/2000/svg">
<path d="M9.24999 14.9167H29.0833V16.3333C29.0833 16.7091 29.2326 17.0694 29.4983 17.3351C29.7639 17.6007 30.1243 17.75 30.5 17.75C30.8757 17.75 31.2361 17.6007 31.5017 17.3351C31.7674 17.0694 31.9167 16.7091 31.9167 16.3333V14.9167H34.75C35.1257 14.9167 35.4861 14.7674 35.7517 14.5017C36.0174 14.2361 36.1667 13.8757 36.1667 13.5C36.1667 13.1243 36.0174 12.7639 35.7517 12.4983C35.4861 12.2326 35.1257 12.0833 34.75 12.0833H31.9167V10.6667C31.9167 10.2909 31.7674 9.93061 31.5017 9.66493C31.2361 9.39926 30.8757 9.25 30.5 9.25C30.1243 9.25 29.7639 9.39926 29.4983 9.66493C29.2326 9.93061 29.0833 10.2909 29.0833 10.6667V12.0833H9.24999C8.87427 12.0833 8.51394 12.2326 8.24826 12.4983C7.98258 12.7639 7.83333 13.1243 7.83333 13.5C7.83333 13.8757 7.98258 14.2361 8.24826 14.5017C8.51394 14.7674 8.87427 14.9167 9.24999 14.9167Z" fill="#1A1A1A"/>
<path d="M34.75 20.5833H23.4167V19.1667C23.4167 18.7909 23.2674 18.4306 23.0017 18.1649C22.7361 17.8993 22.3757 17.75 22 17.75C21.6243 17.75 21.2639 17.8993 20.9983 18.1649C20.7326 18.4306 20.5833 18.7909 20.5833 19.1667V20.5833H9.24999C8.87427 20.5833 8.51394 20.7326 8.24826 20.9983C7.98258 21.2639 7.83333 21.6243 7.83333 22C7.83333 22.3757 7.98258 22.7361 8.24826 23.0017C8.51394 23.2674 8.87427 23.4167 9.24999 23.4167H20.5833V24.8333C20.5833 25.2091 20.7326 25.5694 20.9983 25.8351C21.2639 26.1007 21.6243 26.25 22 26.25C22.3757 26.25 22.7361 26.1007 23.0017 25.8351C23.2674 25.5694 23.4167 25.2091 23.4167 24.8333V23.4167H34.75C35.1257 23.4167 35.4861 23.2674 35.7517 23.0017C36.0174 22.7361 36.1667 22.3757 36.1667 22C36.1667 21.6243 36.0174 21.2639 35.7517 20.9983C35.4861 20.7326 35.1257 20.5833 34.75 20.5833Z" fill="#1A1A1A"/>
<path d="M34.75 29.0833H31.9167V27.6667C31.9167 27.2909 31.7674 26.9306 31.5017 26.6649C31.2361 26.3993 30.8757 26.25 30.5 26.25C30.1243 26.25 29.7639 26.3993 29.4983 26.6649C29.2326 26.9306 29.0833 27.2909 29.0833 27.6667V29.0833H9.24999C8.87427 29.0833 8.51394 29.2326 8.24826 29.4983C7.98258 29.7639 7.83333 30.1243 7.83333 30.5C7.83333 30.8757 7.98258 31.2361 8.24826 31.5017C8.51394 31.7674 8.87427 31.9167 9.24999 31.9167H29.0833V33.3333C29.0833 33.7091 29.2326 34.0694 29.4983 34.3351C29.7639 34.6007 30.1243 34.75 30.5 34.75C30.8757 34.75 31.2361 34.6007 31.5017 34.3351C31.7674 34.0694 31.9167 33.7091 31.9167 33.3333V31.9167H34.75C35.1257 31.9167 35.4861 31.7674 35.7517 31.5017C36.0174 31.2361 36.1667 30.8757 36.1667 30.5C36.1667 30.1243 36.0174 29.7639 35.7517 29.4983C35.4861 29.2326 35.1257 29.0833 34.75 29.0833Z" fill="#1A1A1A"/>
</svg>
