<svg width="60" height="60" viewBox="0 0 60 60" fill="none" xmlns="http://www.w3.org/2000/svg">
<path d="M53.0769 50.1923C53.7142 50.1923 54.2308 49.6757 54.2308 49.0385C54.2308 48.4012 53.7142 47.8846 53.0769 47.8846C52.4397 47.8846 51.9231 48.4012 51.9231 49.0385C51.9231 49.6757 52.4397 50.1923 53.0769 50.1923Z" fill="white"/>
<path d="M26.8875 25.0425L23.7791 26.839V34.0268L26.8881 35.8237L30.0044 37.6203L36.2306 34.0264V26.8394L30.0044 23.2455L26.8875 25.0425Z" fill="white"/>
<path d="M36.1593 7.88226V5.6843C34.1912 5.1766 32.1285 4.90637 30.0042 4.90637C27.8797 4.90637 25.8172 5.17637 23.8491 5.68372V7.88249L30.0039 11.4353L36.1593 7.88226Z" fill="white"/>
<path d="M14.3024 20.5077V13.3942L12.4106 12.303C9.52949 15.2377 7.37445 18.8871 6.23999 22.9581L8.14741 24.0608L14.3024 20.5077Z" fill="white"/>
<path d="M30.5811 12.4345L30.5816 22.2464L33.6907 24.0431L36.7819 25.8255L44.5521 20.5359V13.061C44.5521 12.8548 44.6621 12.6643 44.8407 12.5612L46.7335 11.4695C44.0689 9.00369 40.8621 7.11657 37.3131 6.01257V8.2155C37.3131 8.4218 37.203 8.6123 37.0242 8.71523L33.6542 10.6583L30.5811 12.4345Z" fill="white"/>
<path d="M6.34623 47.3077C5.71 47.3077 5.19238 47.8253 5.19238 48.4615C5.19238 49.0978 5.71 49.6154 6.34623 49.6154C6.98246 49.6154 7.50008 49.0978 7.50008 48.4615C7.50008 47.8253 6.98246 47.3077 6.34623 47.3077Z" fill="white"/>
<path d="M45.7058 20.5082L51.8607 24.0611L53.7616 22.9621C52.628 18.8905 50.4741 15.2407 47.594 12.3053L45.7059 13.3943V20.5082H45.7058Z" fill="white"/>
<path d="M51.8607 35.0843L45.7058 38.6371V45.7431L47.5953 46.8329C50.4743 43.8992 52.6274 40.2518 53.7609 36.183L51.8607 35.0843Z" fill="white"/>
<path d="M52.1498 25.2267C52.0605 25.2783 51.9607 25.3041 51.861 25.3041C51.7615 25.3041 51.662 25.2783 51.5729 25.227L48.2029 23.2839L45.154 21.5219L37.3843 26.8112V33.9946L45.1025 37.653L48.2023 35.8617L51.5729 33.9182C51.7514 33.8153 51.9713 33.8154 52.1498 33.9186L54.0547 35.0198C54.4515 33.2669 54.6622 31.444 54.6622 29.5727C54.6622 27.7013 54.4516 25.8783 54.055 24.1252L52.1498 25.2267Z" fill="white"/>
<path d="M15.4563 13.061V20.5359L23.2272 25.8253L26.3108 24.0432L29.4279 22.2461L29.4273 12.435L26.3459 10.6584L22.9835 8.71502C22.8051 8.61186 22.6953 8.42159 22.6953 8.21552V6.0119C19.145 7.11556 15.937 9.00233 13.2715 11.4676L15.1676 12.5614C15.3462 12.6643 15.4563 12.8548 15.4563 13.061Z" fill="white"/>
<path d="M53.077 9.23076C54.0313 9.23076 54.8077 8.45434 54.8077 7.5C54.8077 6.54565 54.0313 5.76923 53.077 5.76923C52.1225 5.76923 51.3462 6.54565 51.3462 7.5C51.3462 8.45434 52.1225 9.23076 53.077 9.23076Z" fill="white"/>
<path d="M44.5521 46.0762V38.6692L36.8335 35.0107L33.6901 36.823L30.5816 38.6195L30.5811 46.7027L33.6548 48.4792L37.0242 50.4219C37.203 50.5251 37.3131 50.7156 37.3131 50.9218V53.125C40.8627 52.0213 44.0702 50.1341 46.7349 47.6686L44.8407 46.576C44.6621 46.473 44.5521 46.2824 44.5521 46.0762Z" fill="white"/>
<path d="M29.4271 46.7024L29.4277 38.6198L26.311 36.823L23.1754 35.0108L15.4561 38.6692V46.0762C15.4561 46.2824 15.346 46.473 15.1674 46.5759L13.2698 47.6705C15.9356 50.1355 19.1442 52.0222 22.6951 53.1256V50.9215C22.6951 50.7156 22.8049 50.5251 22.9833 50.422L26.3453 48.479L29.4271 46.7024Z" fill="white"/>
<path d="M7.85835 33.9186C8.03697 33.8155 8.25712 33.8153 8.43574 33.9186L11.7977 35.8616L14.9052 37.6532L22.6249 33.9946V26.8113L14.8535 21.5218L11.7971 23.284L8.43574 25.2268C8.34643 25.2783 8.24674 25.3042 8.14704 25.3042C8.04735 25.3042 7.94754 25.2783 7.85835 25.2268L5.94608 24.1213C5.5487 25.8757 5.33789 27.7 5.33789 29.5728C5.33789 31.4455 5.54893 33.2698 5.94643 35.0241L7.85835 33.9186Z" fill="white"/>
<path d="M23.8491 51.2545V53.4537C25.8174 53.961 27.8799 54.2308 30.0042 54.2308C32.1285 54.2308 34.1912 53.9607 36.1593 53.4532V51.255L30.0039 47.7018L23.8491 51.2545Z" fill="white"/>
<path d="M14.3024 38.6373L11.2211 36.861L8.14732 35.0844L6.24048 36.1869C7.37494 40.255 9.52917 43.9019 12.4092 46.835L14.3024 45.7429V38.6373Z" fill="white"/>
</svg>
