<svg width="25" height="25" viewBox="0 0 25 25" fill="none" xmlns="http://www.w3.org/2000/svg">
<g clip-path="url(#clip0_90_1557)">
<path d="M12.1377 19.769C12.1381 18.5334 12.4715 17.3207 13.1028 16.2585C13.7341 15.1963 14.6401 14.3238 15.7253 13.733C16.8106 13.1421 18.035 12.8547 19.2698 12.9009C20.5046 12.9471 21.7041 13.3253 22.7422 13.9956C22.7495 13.4863 22.7534 12.9429 22.7534 12.3564C22.7534 9.34131 22.6509 7.45947 22.4482 5.51025H22.4771C22.365 4.42409 21.9502 3.39121 21.2799 2.52925C20.6096 1.66728 19.7107 1.01087 18.6855 0.634766C18.6313 0.614258 18.5771 0.594727 18.5225 0.576172C18.1173 0.439996 17.6985 0.34879 17.2734 0.304199L17.2329 0.299805C15.6113 0.133301 15.3511 0 11.9316 0C8.51221 0 7.95898 0.133301 6.33887 0.302246L6.29834 0.306641C5.85214 0.353499 5.41286 0.451808 4.98926 0.599609V0.577637C3.93303 0.936756 3.00191 1.59119 2.30628 2.46337C1.61065 3.33555 1.17968 4.38889 1.06445 5.49854C0.861328 7.45166 0.757812 9.33545 0.757812 12.3564C0.757812 15.3774 0.861328 17.2612 1.06445 19.2144C1.20316 20.5471 1.79603 21.7917 2.74359 22.7392C3.69115 23.6866 4.93575 24.2794 6.26855 24.418L6.30908 24.4224C7.93066 24.5913 8.19043 24.7246 11.6099 24.7246C12.7427 24.7246 13.563 24.71 14.207 24.6841C13.5512 24.0447 13.0301 23.2803 12.6747 22.4361C12.3193 21.5919 12.1367 20.685 12.1377 19.769ZM6.4248 6.50146H17.0845C17.3929 6.50146 17.6888 6.624 17.9069 6.84213C18.125 7.06025 18.2476 7.35608 18.2476 7.66455C18.2476 7.97302 18.125 8.26886 17.9069 8.48698C17.6888 8.7051 17.3929 8.82764 17.0845 8.82764H6.42725C6.11878 8.82764 5.82294 8.7051 5.60482 8.48698C5.3867 8.26886 5.26416 7.97302 5.26416 7.66455C5.26416 7.35608 5.3867 7.06025 5.60482 6.84213C5.82294 6.624 6.11878 6.50146 6.42725 6.50146H6.4248ZM6.4248 13.8047C6.1204 13.7985 5.83056 13.6731 5.61748 13.4557C5.40441 13.2382 5.28507 12.9458 5.28507 12.6414C5.28507 12.3369 5.40441 12.0445 5.61748 11.8271C5.83056 11.6096 6.1204 11.4843 6.4248 11.478H12.5044C12.6592 11.4749 12.813 11.5026 12.9569 11.5596C13.1009 11.6167 13.2319 11.7019 13.3425 11.8102C13.4531 11.9185 13.541 12.0479 13.6009 12.1906C13.6609 12.3333 13.6918 12.4865 13.6918 12.6414C13.6918 12.7962 13.6609 12.9494 13.6009 13.0921C13.541 13.2349 13.4531 13.3642 13.3425 13.4725C13.2319 13.5809 13.1009 13.666 12.9569 13.7231C12.813 13.7801 12.6592 13.8079 12.5044 13.8047H6.4248Z" fill="#1A1A1A"/>
<path d="M19.0112 14.5381C17.9766 14.5381 16.9653 14.8449 16.1051 15.4197C15.2448 15.9944 14.5744 16.8114 14.1785 17.7672C13.7825 18.7231 13.6789 19.7748 13.8808 20.7896C14.0826 21.8043 14.5808 22.7363 15.3124 23.4679C16.044 24.1995 16.976 24.6977 17.9907 24.8995C19.0054 25.1013 20.0572 24.9977 21.013 24.6018C21.9689 24.2059 22.7858 23.5354 23.3606 22.6752C23.9354 21.815 24.2422 20.8036 24.2422 19.769C24.2422 18.3817 23.6911 17.0512 22.7101 16.0702C21.7291 15.0892 20.3986 14.5381 19.0112 14.5381ZM21.0845 20.5347H18.9072C18.7421 20.5347 18.5838 20.4691 18.467 20.3523C18.3503 20.2356 18.2847 20.0772 18.2847 19.9121V16.5674C18.2847 16.4023 18.3503 16.2439 18.467 16.1272C18.5838 16.0104 18.7421 15.9448 18.9072 15.9448C19.0723 15.9448 19.2307 16.0104 19.3474 16.1272C19.4642 16.2439 19.5298 16.4023 19.5298 16.5674V19.2896H21.0845C21.2496 19.2896 21.4079 19.3551 21.5247 19.4719C21.6414 19.5886 21.707 19.747 21.707 19.9121C21.707 20.0772 21.6414 20.2356 21.5247 20.3523C21.4079 20.4691 21.2496 20.5347 21.0845 20.5347Z" fill="#1A1A1A"/>
</g>
<defs>
<clipPath id="clip0_90_1557">
<rect width="25" height="25" fill="white"/>
</clipPath>
</defs>
</svg>
