<svg width="20" height="20" viewBox="0 0 20 20" fill="none" xmlns="http://www.w3.org/2000/svg">
<g clip-path="url(#clip0_116_2003)">
<path d="M19.1913 12.3256C19.1077 12.2422 19.0021 12.1842 18.8869 12.1583C18.7716 12.1324 18.6514 12.1397 18.5401 12.1794C17.0447 12.7125 15.4287 12.8104 13.8798 12.4617C12.331 12.113 10.9129 11.3319 9.79034 10.2092C8.66776 9.0866 7.88677 7.66847 7.53812 6.11961C7.18947 4.57075 7.28746 2.95476 7.82071 1.45938C7.86034 1.34808 7.86761 1.22783 7.84168 1.11257C7.81574 0.997314 7.75768 0.891764 7.6742 0.80816C7.59073 0.724557 7.48527 0.666324 7.37005 0.640212C7.25483 0.614101 7.13457 0.621181 7.02321 0.660631C5.67502 1.13672 4.45155 1.91071 3.44384 2.92501C1.63735 4.73286 0.622808 7.18415 0.623291 9.73988C0.623774 12.2956 1.63925 14.7465 3.44642 16.5537C5.25358 18.3608 7.70449 19.3763 10.2602 19.3768C12.8159 19.3773 15.2672 18.3627 17.0751 16.5563C18.0895 15.5484 18.8635 14.3247 19.3395 12.9763C19.3788 12.8649 19.3857 12.7447 19.3595 12.6295C19.3333 12.5144 19.275 12.409 19.1913 12.3256Z" fill="#2E94F2"/>
</g>
<defs>
<clipPath id="clip0_116_2003">
<rect width="20" height="20" fill="white"/>
</clipPath>
</defs>
</svg>
