<svg width="48" height="48" viewBox="0 0 48 48" fill="none" xmlns="http://www.w3.org/2000/svg">
<g clip-path="url(#clip0_91_3588)">
<path d="M34.5991 19.5341L7.91373 1.17886C6.81725 0.422982 5.67682 0.0240479 4.70049 0.0240479C2.5569 0.0240479 1.13574 1.82197 1.13574 4.71522V43.3096C1.13574 44.7229 1.54673 45.9038 2.15602 46.7258C2.77464 47.559 3.74242 47.9999 4.78797 47.9999C5.76392 47.9999 6.85924 47.6002 7.95534 46.8455L34.6166 28.4903C36.3306 27.309 37.2704 25.7191 37.27 24.0114C37.27 22.3045 36.3154 20.7146 34.5991 19.5341Z" fill="#E1E1E1"/>
<path d="M44.369 47.9879L44.3406 47.9875C44.3359 47.9875 44.3313 47.9879 44.3267 47.9879H44.369Z" fill="#E1E1E1"/>
<path d="M44.2907 0L43.1876 0.0031106C41.7431 0.0031106 40.4927 1.18047 40.4927 2.6269V45.3362C40.4927 46.7841 41.7225 47.9728 43.169 47.9728L44.3408 47.9876C45.7799 47.9799 46.864 46.781 46.864 45.3385V2.62418C46.864 1.17775 45.7364 0 44.2907 0Z" fill="#E1E1E1"/>
</g>
<defs>
<clipPath id="clip0_91_3588">
<rect width="48" height="48" fill="white"/>
</clipPath>
</defs>
</svg>
