<svg width="44" height="44" viewBox="0 0 44 44" fill="none" xmlns="http://www.w3.org/2000/svg">
<path d="M16.1053 7H12.9474C10.7673 7 9 8.7673 9 10.9474V33.0526C9 35.2327 10.7673 37 12.9474 37H16.1053C18.2853 37 20.0526 35.2327 20.0526 33.0526V10.9474C20.0526 8.7673 18.2853 7 16.1053 7Z" fill="#1A1A1A"/>
<path d="M31.8948 7H28.7369C26.5568 7 24.7896 8.7673 24.7896 10.9474V33.0526C24.7896 35.2327 26.5568 37 28.7369 37H31.8948C34.0749 37 35.8422 35.2327 35.8422 33.0526V10.9474C35.8422 8.7673 34.0749 7 31.8948 7Z" fill="#1A1A1A"/>
</svg>
