<svg width="100" height="100" viewBox="0 0 100 100" fill="none" xmlns="http://www.w3.org/2000/svg">
<g clip-path="url(#clip0_91_3557)">
<path d="M50 0C22.375 0 0 22.375 0 50C0 77.625 22.375 100 50 100C77.625 100 100 77.625 100 50C100 22.375 77.625 0 50 0ZM44.5 62.5C44.5 65.625 42 68 39 68C35.875 68 33.5 65.5 33.5 62.5V37.5C33.375 34.5 35.875 32 38.875 32C42 32 44.5 34.5 44.5 37.5V62.5ZM66.625 62.5C66.625 65.625 64.125 68 61.125 68C58 68 55.625 65.5 55.625 62.5V37.5C55.5 34.5 58 32 61 32C64.125 32 66.625 34.5 66.625 37.5V62.5Z" fill="#2E94F2"/>
</g>
<defs>
<clipPath id="clip0_91_3557">
<rect width="100" height="100" fill="white"/>
</clipPath>
</defs>
</svg>
