<svg width="100" height="100" viewBox="0 0 100 100" fill="none" xmlns="http://www.w3.org/2000/svg">
<path d="M50 0C22.3171 0 0 22.3171 0 50C0 77.6829 22.3171 100 50 100C77.6829 100 100 77.6829 100 50C100 22.3171 77.6829 0 50 0ZM72.1951 52.3171L38.9024 71.8293C38.5366 72.0732 37.9268 72.1951 37.561 72.1951C37.1951 72.1951 36.5854 72.0732 36.2195 71.8293C35.3659 71.2195 34.8781 70.4878 34.8781 69.5122V30.6098H34.7561C34.7561 29.6341 35.3659 28.6585 36.0976 28.2927C36.8293 27.9268 38.0488 27.6829 38.9024 28.2927L72.1951 47.6829C73.0488 48.2927 73.5366 49.0244 73.5366 50C73.5366 50.9756 72.9268 51.9512 72.1951 52.3171Z" fill="#277ECE"/>
</svg>
