<svg width="32" height="32" viewBox="0 0 32 32" fill="none" xmlns="http://www.w3.org/2000/svg">
<path d="M25.632 13.7066H18.2933V6.36798C18.2933 5.09865 17.2693 4.07465 16 4.07465C14.7307 4.07465 13.7067 5.09865 13.7067 6.36798V13.7066H6.36799C5.09866 13.7066 4.07466 14.7306 4.07466 16C4.07466 17.2693 5.09866 18.2933 6.36799 18.2933H13.7067V25.632C13.7067 26.9013 14.7307 27.9253 16 27.9253C17.2693 27.9253 18.2933 26.9013 18.2933 25.632V18.2933H25.632C26.9013 18.2933 27.9253 17.2693 27.9253 16C27.9253 14.7306 26.9013 13.7066 25.632 13.7066Z" fill="white"/>
</svg>
