<svg width="16" height="20" viewBox="0 0 16 20" fill="none" xmlns="http://www.w3.org/2000/svg">
<path d="M2.90915 8.18173H13.0908C13.2878 8.18173 13.4583 8.09183 13.6022 7.91188C13.746 7.73198 13.8182 7.51894 13.8182 7.27272C13.8182 7.0265 13.746 6.81357 13.6022 6.63342L8.51133 0.269852C8.36749 0.0901497 8.1971 0 8 0C7.80291 0 7.63252 0.0901497 7.48856 0.269852L2.39771 6.63342C2.25374 6.81337 2.18182 7.0265 2.18182 7.27272C2.18182 7.51889 2.25374 7.73198 2.39771 7.91188C2.54183 8.09183 2.71221 8.18173 2.90915 8.18173Z" fill="#1A1A1A"/>
<path d="M13.0908 11.8184H2.90915C2.71206 11.8184 2.54167 11.9084 2.39771 12.0881C2.25374 12.2681 2.18182 12.4811 2.18182 12.7273C2.18182 12.9735 2.25374 13.1866 2.39771 13.3665L7.48856 19.73C7.63268 19.9099 7.80307 20 8 20C8.19694 20 8.36749 19.9099 8.51133 19.73L13.6022 13.3664C13.746 13.1866 13.8182 12.9735 13.8182 12.7272C13.8182 12.4811 13.746 12.2681 13.6022 12.0881C13.4583 11.9082 13.2878 11.8184 13.0908 11.8184Z" fill="#1A1A1A"/>
</svg>
