<svg width="40" height="40" viewBox="0 0 40 40" fill="none" xmlns="http://www.w3.org/2000/svg">
<path d="M27.6925 23.0769C27.6925 18.6233 24.0691 15 19.6155 15C19.4031 15 19.2309 14.8278 19.2309 14.6154V11.9305C16.4454 12.0254 13.916 13.1465 12.0095 14.9269L13.4769 16.3944C13.6271 16.5446 13.6271 16.7882 13.4769 16.9383C13.4018 17.0134 13.3034 17.0509 13.2049 17.0509C13.1065 17.0509 13.0081 17.0134 12.9329 16.9383L11.4655 15.4709C9.68499 17.3774 8.56392 19.9067 8.46899 22.6923H10.5495C10.7619 22.6923 10.9341 22.8645 10.9341 23.0769C10.9341 23.2894 10.7619 23.4616 10.5495 23.4616H8.46899C8.56392 26.2472 9.68499 28.7765 11.4655 30.6831L12.9329 29.2156C13.0831 29.0654 13.3266 29.0654 13.4768 29.2156C13.6271 29.3658 13.6271 29.6093 13.4768 29.7595L12.0094 31.2269C13.9159 33.0074 16.4453 34.1286 19.2308 34.2234V31.5385C19.2308 31.326 19.403 31.1539 19.6155 31.1539C24.0691 31.1539 27.6925 27.5306 27.6925 23.0769ZM19.6155 25C18.5551 25 17.6925 24.1373 17.6925 23.0769C17.6925 22.1483 18.3542 21.3712 19.2309 21.1926V17.6923C19.2309 17.4799 19.4031 17.3077 19.6155 17.3077C19.828 17.3077 20.0001 17.4799 20.0001 17.6923V21.1926C20.8768 21.3712 21.5386 22.1483 21.5386 23.0769C21.5386 24.1373 20.6759 25 19.6155 25Z" fill="#1A1A1A"/>
<path d="M19.6155 8.07695C20.0037 8.07695 20.3885 8.09179 20.7694 8.12087V5.76926H18.4617V8.12087C18.8425 8.09179 19.2274 8.07695 19.6155 8.07695Z" fill="#1A1A1A"/>
<path d="M25.5895 29.5949C24.1027 30.9589 22.1495 31.8217 20 31.9142V34.2234C22.7856 34.1286 25.3149 33.0074 27.2215 31.2269L25.7541 29.7595L25.5895 29.5949Z" fill="#1A1A1A"/>
<path d="M19.6155 21.9231C18.9793 21.9231 18.4617 22.4407 18.4617 23.0769C18.4617 23.7132 18.9793 24.2308 19.6155 24.2308C20.2517 24.2308 20.7694 23.7132 20.7694 23.0769C20.7694 22.4407 20.2517 21.9231 19.6155 21.9231Z" fill="#1A1A1A"/>
<path d="M27.2215 14.9269C25.3149 13.1465 22.7856 12.0254 20 11.9305V14.2397C22.1495 14.3322 24.1027 15.195 25.5895 16.5589L27.2215 14.9269Z" fill="#1A1A1A"/>
<path d="M16.9231 5.00001H18.077H21.1539H22.3077C22.944 5.00001 23.4616 4.4824 23.4616 3.84617C23.4616 3.20994 22.944 2.69232 22.3077 2.69232H16.9231C16.2869 2.69232 15.7693 3.20994 15.7693 3.84617C15.7693 4.4824 16.2869 5.00001 16.9231 5.00001Z" fill="#1A1A1A"/>
<path d="M26.1335 29.0511L26.2981 29.2156L27.7655 30.6831C29.546 28.7765 30.6672 26.2472 30.762 23.4615H28.4528C28.3604 25.6111 27.4975 27.5642 26.1335 29.0511Z" fill="#1A1A1A"/>
<path d="M19.6155 8.84616C11.7687 8.84616 5.38477 15.2301 5.38477 23.0769C5.38477 30.9239 11.7687 37.3077 19.6155 37.3077C27.4625 37.3077 33.8463 30.9239 33.8463 23.0769C33.8463 15.2301 27.4625 8.84616 19.6155 8.84616ZM28.0863 31.459C28.0742 31.4759 28.0616 31.4927 28.0464 31.5079C28.0312 31.5231 28.0145 31.5356 27.9975 31.5479C25.8422 33.6808 22.8801 35 19.6155 35C16.3508 35 13.3888 33.6807 11.2335 31.5477C11.2165 31.5356 11.1998 31.523 11.1846 31.5078C11.1694 31.4926 11.1568 31.4759 11.1447 31.4589C9.01177 29.3036 7.69246 26.3416 7.69246 23.0769C7.69246 19.8123 9.01177 16.8502 11.1447 14.6949C11.1568 14.678 11.1694 14.6612 11.1846 14.6461C11.1998 14.6309 11.2165 14.6184 11.2334 14.6062C13.3888 12.4732 16.3508 11.1539 19.6155 11.1539C22.8802 11.1539 25.8422 12.4732 27.9976 14.6061C28.0145 14.6182 28.0313 14.6308 28.0465 14.646C28.0616 14.6612 28.0742 14.6779 28.0865 14.6949C30.2193 16.8502 31.5386 19.8123 31.5386 23.0769C31.5386 26.3416 30.2193 29.3036 28.0863 31.459Z" fill="#1A1A1A"/>
<path d="M28.4528 22.6923H30.762C30.6672 19.9067 29.546 17.3774 27.7655 15.4709L26.1335 17.1028C27.4975 18.5896 28.3603 20.5428 28.4528 22.6923Z" fill="#1A1A1A"/>
<path d="M35.7692 10.7692C36.1941 10.7692 36.5385 10.4248 36.5385 10C36.5385 9.57517 36.1941 9.23077 35.7692 9.23077C35.3444 9.23077 35 9.57517 35 10C35 10.4248 35.3444 10.7692 35.7692 10.7692Z" fill="#1A1A1A"/>
<path d="M3.46161 11.5385C3.88645 11.5385 4.23084 11.1941 4.23084 10.7692C4.23084 10.3444 3.88645 10 3.46161 10C3.03678 10 2.69238 10.3444 2.69238 10.7692C2.69238 11.1941 3.03678 11.5385 3.46161 11.5385Z" fill="#1A1A1A"/>
<path d="M36.5385 30C36.9634 30 37.3077 29.6556 37.3077 29.2308C37.3077 28.8059 36.9634 28.4615 36.5385 28.4615C36.1137 28.4615 35.7693 28.8059 35.7693 29.2308C35.7693 29.6556 36.1137 30 36.5385 30Z" fill="#1A1A1A"/>
<path d="M33.4616 36.1538C33.8864 36.1538 34.2308 35.8095 34.2308 35.3846C34.2308 34.9598 33.8864 34.6154 33.4616 34.6154C33.0368 34.6154 32.6924 34.9598 32.6924 35.3846C32.6924 35.8095 33.0368 36.1538 33.4616 36.1538Z" fill="#1A1A1A"/>
<path d="M6.15388 8.07693C7.42635 8.07693 8.46158 7.0417 8.46158 5.76924C8.46158 4.49678 7.42635 3.46155 6.15388 3.46155C4.88142 3.46155 3.84619 4.49678 3.84619 5.76924C3.84619 7.0417 4.88142 8.07693 6.15388 8.07693Z" fill="#1A1A1A"/>
<path d="M4.99998 32.6923C3.9396 32.6923 3.0769 33.555 3.0769 34.6154C3.0769 35.6758 3.9396 36.5385 4.99998 36.5385C6.06037 36.5385 6.92306 35.6758 6.92306 34.6154C6.92306 33.555 6.06037 32.6923 4.99998 32.6923Z" fill="#1A1A1A"/>
<path d="M29.6155 8.84615C30.6758 8.84615 31.5385 7.98346 31.5385 6.92308C31.5385 5.86269 30.6758 5 29.6155 5C28.5551 5 27.6924 5.86269 27.6924 6.92308C27.6924 7.98346 28.5551 8.84615 29.6155 8.84615Z" fill="#1A1A1A"/>
</svg>
