<svg width="20" height="20" viewBox="0 0 20 20" fill="none" xmlns="http://www.w3.org/2000/svg">
<g clip-path="url(#clip0_90_1634)">
<path d="M17.8987 4.58998L10.3408 0.0936914C10.1308 -0.0312305 9.86918 -0.0312305 9.65914 0.0936914L2.10121 4.58998C1.89922 4.71018 1.77539 4.92791 1.77539 5.16295V7.72963C1.77539 13.1356 4.89883 18.0732 9.75926 19.955C9.91398 20.0149 10.0858 20.015 10.2407 19.955C15.0893 18.0779 18.2245 13.151 18.2245 7.72963V5.16295C18.2245 4.92787 18.1007 4.71018 17.8987 4.58998ZM13.2936 8.50193L9.11527 12.6803C8.85492 12.9406 8.43281 12.9406 8.17246 12.6803L6.70605 11.2139C6.4457 10.9536 6.4457 10.5315 6.70605 10.2711C6.96641 10.0108 7.38855 10.0108 7.64887 10.2711L8.64383 11.2661L12.3508 7.55912C12.6111 7.29881 13.0332 7.29881 13.2936 7.55912C13.554 7.81951 13.554 8.24162 13.2936 8.50193Z" fill="#2E94F2"/>
</g>
<defs>
<clipPath id="clip0_90_1634">
<rect width="20" height="20" fill="white"/>
</clipPath>
</defs>
</svg>
