<svg width="44" height="44" viewBox="0 0 44 44" fill="none" xmlns="http://www.w3.org/2000/svg">
<path d="M38.7519 16.7188C38.0124 16.6114 37.3066 16.3385 36.6872 15.9206C36.0677 15.5026 35.5506 14.9502 35.1742 14.3046C34.7978 13.6591 34.5719 12.9369 34.5133 12.1919C34.4547 11.447 34.565 10.6984 34.8358 10.0019C35.008 9.54657 35.0333 9.04878 34.9083 8.57831C34.7833 8.10785 34.5142 7.6883 34.1387 7.37848C32.4811 5.98651 30.5943 4.89301 28.5624 4.14675C28.0997 3.97487 27.5946 3.9534 27.119 4.08538C26.6434 4.21737 26.2216 4.49608 25.9137 4.88181C25.4502 5.47449 24.8578 5.95384 24.1815 6.28351C23.5051 6.61318 22.7626 6.78451 22.0102 6.78451C21.2578 6.78451 20.5153 6.61318 19.839 6.28351C19.1627 5.95384 18.5703 5.47449 18.1068 4.88181C17.7989 4.49608 17.3771 4.21737 16.9015 4.08538C16.4259 3.9534 15.9207 3.97487 15.4581 4.14675C13.582 4.83573 11.8278 5.81974 10.2619 7.06164C9.8672 7.37413 9.58289 7.80477 9.45062 8.29053C9.31835 8.77628 9.34507 9.29162 9.52687 9.76109C9.81931 10.476 9.94014 11.2495 9.87966 12.0195C9.81918 12.7895 9.57907 13.5347 9.1786 14.1951C8.77813 14.8556 8.22844 15.413 7.57362 15.8227C6.91881 16.2324 6.1771 16.4828 5.40799 16.5541C4.90866 16.6075 4.43967 16.8198 4.07006 17.1597C3.70045 17.4997 3.44976 17.9493 3.35488 18.4424C3.1189 19.6105 3.00003 20.7993 3.00003 21.991C2.99829 22.9887 3.07883 23.9848 3.24082 24.9693C3.32145 25.4782 3.56748 25.9464 3.94088 26.3015C4.31428 26.6565 4.79426 26.8787 5.3066 26.9336C6.0926 27.0074 6.8495 27.2684 7.51394 27.6947C8.17839 28.121 8.73105 28.7003 9.12566 29.3841C9.52028 30.0678 9.74537 30.8361 9.7821 31.6247C9.81882 32.4133 9.66612 33.1993 9.33676 33.9167C9.12122 34.3834 9.06776 34.9087 9.18486 35.4093C9.30196 35.9098 9.58291 36.3569 9.98311 36.6796C11.6308 38.0462 13.4995 39.122 15.5087 39.8606C15.7657 39.9496 16.0353 39.9967 16.3072 40C16.68 39.9992 17.0472 39.909 17.3779 39.737C17.7087 39.565 17.9934 39.3162 18.2082 39.0115C18.6599 38.3534 19.2654 37.8154 19.9721 37.4444C20.6789 37.0734 21.4655 36.8804 22.2637 36.8823C23.0371 36.8833 23.7996 37.0648 24.4905 37.4125C25.1813 37.7601 25.7815 38.2642 26.2432 38.8847C26.5503 39.2975 26.9853 39.5972 27.4804 39.737C27.9755 39.8768 28.503 39.849 28.9806 39.6578C30.8179 38.9184 32.5283 37.8964 34.05 36.6289C34.4323 36.3128 34.7045 35.8837 34.8274 35.4032C34.9504 34.9227 34.9178 34.4156 34.7344 33.9548C34.4363 33.2491 34.3063 32.4838 34.3547 31.7192C34.4031 30.9547 34.6286 30.2119 35.0133 29.5494C35.398 28.887 35.9314 28.323 36.5714 27.902C37.2114 27.4811 37.9406 27.2146 38.7012 27.1238C39.1944 27.0555 39.6531 26.8321 40.0109 26.4857C40.3686 26.1394 40.6068 25.6882 40.6909 25.1974C40.8945 24.1403 41.0047 23.0674 41.0204 21.991C41.0207 20.8556 40.9146 19.7228 40.7036 18.6072C40.618 18.1272 40.3834 17.6865 40.033 17.3475C39.6827 17.0085 39.2344 16.7885 38.7519 16.7188ZM28.347 21.991C28.347 23.2443 27.9753 24.4694 27.279 25.5115C26.5828 26.5536 25.5931 27.3658 24.4352 27.8454C23.2773 28.325 22.0032 28.4505 20.774 28.206C19.5448 27.9615 18.4157 27.358 17.5295 26.4717C16.6433 25.5855 16.0398 24.4564 15.7953 23.2272C15.5508 21.998 15.6762 20.7239 16.1559 19.566C16.6355 18.4081 17.4477 17.4185 18.4897 16.7222C19.5318 16.0259 20.7569 15.6543 22.0102 15.6543C23.6908 15.6543 25.3026 16.3219 26.491 17.5102C27.6794 18.6986 28.347 20.3104 28.347 21.991Z" fill="#1A1A1A"/>
</svg>
